<svg xmlns="http://www.w3.org/2000/svg" width="32" height="32" viewBox="0 0 32 32">
  <g id="Export" transform="translate(0.5 0.5)">
    <path id="Caminho_116" data-name="Caminho 116" d="M15.5.727A14.773,14.773,0,1,1,.727,15.5,14.773,14.773,0,0,1,15.5.727M15.5,0A15.5,15.5,0,1,0,31,15.5,15.5,15.5,0,0,0,15.5,0Z" fill="#f9a179" stroke="#f9a179" stroke-width="1"/>
    <path id="Caminho_117" data-name="Caminho 117" d="M45.98,87.16a6.621,6.621,0,0,1-.688-.024,9.784,9.784,0,0,1-4.9-1.749.363.363,0,1,1,.4-.6,9.055,9.055,0,0,0,4.534,1.62,9.186,9.186,0,0,0,5.834-1.62.363.363,0,0,1,.5.092.358.358,0,0,1-.092.5A9.951,9.951,0,0,1,45.98,87.16Z" transform="translate(-30.48 -64.199)" fill="#f9a179" stroke="#f9a179" stroke-width="1"/>
    <path id="Caminho_118" data-name="Caminho 118" d="M35.744,55.218a.371.371,0,0,1-.172-.044.363.363,0,0,1-.148-.484,2.274,2.274,0,0,1,4.011,0,.364.364,0,0,1-.642.344,1.548,1.548,0,0,0-2.729,0A.366.366,0,0,1,35.744,55.218Z" transform="translate(-26.814 -40.534)" fill="#f9a179" stroke="#f9a179" stroke-width="1"/>
    <path id="Caminho_119" data-name="Caminho 119" d="M80.821,55.194A.366.366,0,0,1,80.5,55a1.548,1.548,0,0,0-2.729,0,.363.363,0,1,1-.639-.344,2.272,2.272,0,0,1,4.008,0,.363.363,0,0,1-.148.484A.371.371,0,0,1,80.821,55.194Z" transform="translate(-58.414 -40.51)" fill="#f9a179" stroke="#f9a179" stroke-width="1"/>
  </g>
</svg>
