<svg xmlns="http://www.w3.org/2000/svg" width="16" height="16" viewBox="0 0 16 16">
  <g id="duotone-plus-circle" transform="translate(-2.25 -2.25)">
    <path id="Caminho_5" data-name="Caminho 5" d="M17.769,10.385A7.385,7.385,0,1,1,10.385,3,7.385,7.385,0,0,1,17.769,10.385Z" transform="translate(-0.135 -0.135)" fill="#c68647" opacity="0.15"/>
    <path id="Caminho_6" data-name="Caminho 6" d="M10.865,6.968a.615.615,0,1,0-1.231,0ZM9.635,13.532a.615.615,0,1,0,1.231,0Zm-2.667-3.9a.615.615,0,1,0,0,1.231Zm6.564,1.231a.615.615,0,1,0,0-1.231Zm-3.9-3.9v6.564h1.231V6.968Zm-2.667,3.9h6.564V9.635H6.968Zm10.051-.615a6.769,6.769,0,0,1-6.769,6.769V18.25a8,8,0,0,0,8-8ZM10.25,17.019A6.769,6.769,0,0,1,3.481,10.25H2.25a8,8,0,0,0,8,8ZM3.481,10.25A6.769,6.769,0,0,1,10.25,3.481V2.25a8,8,0,0,0-8,8ZM10.25,3.481a6.769,6.769,0,0,1,6.769,6.769H18.25a8,8,0,0,0-8-8Z" fill="#f9a179"/>
  </g>
</svg>
