<svg xmlns="http://www.w3.org/2000/svg" width="53.107" height="38.945" viewBox="0 0 53.107 38.945">
  <g id="noun_Money_2401397" transform="translate(-9.5 2)">
    <g id="Outline_Icon" data-name="Outline Icon" transform="translate(9.5 -2)">
      <path id="Caminho_173" data-name="Caminho 173" d="M54.047,18.651a2.627,2.627,0,0,1-2.454-2.766A.885.885,0,0,0,50.708,15H39.885a.885.885,0,1,0,0,1.77H49.9a4.411,4.411,0,0,0,3.259,3.551v10.6A4.411,4.411,0,0,0,49.9,34.472H40.372a.885.885,0,1,0,0,1.77H50.708a.885.885,0,0,0,.885-.885,2.627,2.627,0,0,1,2.454-2.766.885.885,0,0,0,.885-.885V19.536A.885.885,0,0,0,54.047,18.651Z" transform="translate(-6.251 -10.574)" fill="#691cc7"/>
      <path id="Caminho_174" data-name="Caminho 174" d="M22.047,15H11.13a.885.885,0,0,0-.885.885,2.59,2.59,0,0,1-2.36,2.766A.885.885,0,0,0,7,19.536v12.17a.885.885,0,0,0,.885.885,2.59,2.59,0,0,1,2.36,2.766.885.885,0,0,0,.885.885H21.516a.885.885,0,1,0,0-1.77h-9.58A4.376,4.376,0,0,0,8.77,30.926V20.317a4.376,4.376,0,0,0,3.166-3.547H22.047a.885.885,0,0,0,0-1.77Z" transform="translate(-2.574 -10.574)" fill="#691cc7"/>
      <path id="Caminho_175" data-name="Caminho 175" d="M52.451,10H4.655A2.655,2.655,0,0,0,2,12.655V37.438a2.655,2.655,0,0,0,2.655,2.655h47.8a2.655,2.655,0,0,0,2.655-2.655V12.655A2.655,2.655,0,0,0,52.451,10Zm.885,27.438a.885.885,0,0,1-.885.885H4.655a.885.885,0,0,1-.885-.885V12.655a.885.885,0,0,1,.885-.885h47.8a.885.885,0,0,1,.885.885Z" transform="translate(-2 -10)" fill="#691cc7"/>
      <path id="Caminho_176" data-name="Caminho 176" d="M51.141,47H6.885a.885.885,0,0,0,0,1.77H51.141a.885.885,0,1,0,0-1.77Z" transform="translate(-2.46 -14.251)" fill="#691cc7"/>
      <path id="Caminho_177" data-name="Caminho 177" d="M46.519,52H12.885a.885.885,0,0,0,0,1.77H46.519a.885.885,0,0,0,0-1.77Z" transform="translate(-3.149 -14.825)" fill="#691cc7"/>
    </g>
  </g>
</svg>
