<svg id="calendar" xmlns="http://www.w3.org/2000/svg" width="12" height="12" viewBox="0 0 12 12">
  <path id="Caminho_143" data-name="Caminho 143" d="M10.453.938H9.375V.375a.375.375,0,0,0-.75,0V.938H3.375V.375a.375.375,0,0,0-.75,0V.938H1.547A1.549,1.549,0,0,0,0,2.484v7.969A1.549,1.549,0,0,0,1.547,12h8.906A1.549,1.549,0,0,0,12,10.453V2.484A1.549,1.549,0,0,0,10.453.938Zm-8.906.75H2.625v.375a.375.375,0,0,0,.75,0V1.688h5.25v.375a.375.375,0,0,0,.75,0V1.688h1.078a.8.8,0,0,1,.8.8v.891H.75V2.484A.8.8,0,0,1,1.547,1.688Zm8.906,9.563H1.547a.8.8,0,0,1-.8-.8V4.125h10.5v6.328A.8.8,0,0,1,10.453,11.25Z" fill="#691cc7"/>
</svg>
