<svg xmlns="http://www.w3.org/2000/svg" width="28.436" height="28.374" viewBox="0 0 28.436 28.374">
  <g id="noun_design_967246" transform="translate(-2.467 -2.5)">
    <circle id="Elipse_28" data-name="Elipse 28" cx="5.896" cy="5.896" r="5.896" transform="translate(3.028 18.582)" fill="none" stroke="#fff" stroke-miterlimit="10" stroke-width="1"/>
    <path id="Caminho_182" data-name="Caminho 182" d="M21.029,14.581H11.553A1,1,0,0,1,10.5,13.529V4.053A1,1,0,0,1,11.553,3h9.476a1,1,0,0,1,1.053,1.053v9.476A1,1,0,0,1,21.029,14.581Z" transform="translate(8.321)" fill="none" stroke="#fff" stroke-miterlimit="10" stroke-width="1"/>
    <path id="Caminho_183" data-name="Caminho 183" d="M21.084,22.137a.774.774,0,0,1-.632-.211L10.766,12.24a1.042,1.042,0,0,1,1.474-1.474l9.686,9.686a1.018,1.018,0,0,1,0,1.474C21.716,22.137,21.505,22.137,21.084,22.137Z" transform="translate(8.266 8.238)" fill="#fff"/>
    <path id="Caminho_184" data-name="Caminho 184" d="M11.508,22.137a.774.774,0,0,0,.632-.211l9.686-9.686a1.042,1.042,0,1,0-1.474-1.474l-9.686,9.686a1.018,1.018,0,0,0,0,1.474A1.592,1.592,0,0,0,11.508,22.137Z" transform="translate(8.155 8.238)" fill="#fff"/>
    <path id="Caminho_185" data-name="Caminho 185" d="M13.767,14.5H4.081a.968.968,0,0,1-1.053-1.263L7.871,3.549c.421-.632,1.474-.632,1.685,0L14.4,13.235A.772.772,0,0,1,13.767,14.5Z" transform="translate(0 0.083)" fill="none" stroke="#fff" stroke-miterlimit="10" stroke-width="1"/>
  </g>
</svg>
