<svg xmlns="http://www.w3.org/2000/svg" width="67.284" height="40.37" viewBox="0 0 67.284 40.37">
  <g id="noun_receive_money_2401411" data-name="noun_receive money_2401411" transform="translate(-2.46 -14)">
    <g id="Outline_Icon" data-name="Outline Icon" transform="translate(2.46 14)">
      <path id="Caminho_178" data-name="Caminho 178" d="M68.162,38.67H60.693c-.218,0-.381-.137-.381-.259V16.5c0-.122.164-.259.381-.259h7.468a1.121,1.121,0,1,0,0-2.243H60.693a2.579,2.579,0,0,0-2.6,2.243H37.122a10.053,10.053,0,0,0-7.593,3.381L26.95,22.576a1.135,1.135,0,0,0-.224.395H4.593A2.673,2.673,0,0,0,2,25.712V51.629A2.673,2.673,0,0,0,4.593,54.37H48.748a2.673,2.673,0,0,0,2.593-2.741V42.867a10.829,10.829,0,0,0,4.132-3.882h2.672a2.6,2.6,0,0,0,2.548,1.929h7.468a1.121,1.121,0,1,0,0-2.243ZM48.748,52.127H4.593c-.165,0-.35-.205-.35-.5V25.712c0-.293.185-.5.35-.5h31.69L31.134,30.05a4.362,4.362,0,0,0,0,6.42,4.912,4.912,0,0,0,6.63,0l4.03-3.786a8.672,8.672,0,0,0,1.742.885,1.051,1.051,0,0,0-.044.214v9.547a4.322,4.322,0,0,0-2.8,3.189H33.571a1.121,1.121,0,0,0,0,2.243h8.108A1.121,1.121,0,0,0,42.8,47.641,2.064,2.064,0,0,1,44.613,45.4a1.121,1.121,0,0,0,1.121-1.121V34.091A9.014,9.014,0,0,0,49.1,33.8v17.83C49.1,51.922,48.913,52.127,48.748,52.127Zm6.076-15.385a1.121,1.121,0,0,0-1.009.625,9.247,9.247,0,0,1-2.474,2.874V32.876a12.255,12.255,0,0,0,1.218-.75,1.121,1.121,0,0,0-1.291-1.833c-4.971,3.5-8.626.235-8.775.1a1.121,1.121,0,0,0-1.535,0l-4.73,4.443a2.636,2.636,0,0,1-3.558,0,2.118,2.118,0,0,1,0-3.15l8.368-7.861A1.123,1.123,0,1,0,39.5,22.186l-.833.785H29.586L31.222,21.1a7.814,7.814,0,0,1,5.9-2.614H58.069V36.742Z" transform="translate(-1.999 -14)" fill="#691cc7"/>
      <path id="Caminho_179" data-name="Caminho 179" d="M56.121,17a1.121,1.121,0,1,0,0,2.243h4.486a1.121,1.121,0,0,0,0-2.243Z" transform="translate(4.434 -13.636)" fill="#691cc7"/>
      <path id="Caminho_180" data-name="Caminho 180" d="M19.162,27H11.015a1.121,1.121,0,0,0-1.121,1.121,2.052,2.052,0,0,1-1.772,2.243A1.121,1.121,0,0,0,7,31.486V42.7a1.121,1.121,0,0,0,1.121,1.121,2.052,2.052,0,0,1,1.772,2.243,1.121,1.121,0,0,0,1.121,1.121h7.726a1.121,1.121,0,1,0,0-2.243H12.013a4.311,4.311,0,0,0-2.77-3.186V32.429a4.311,4.311,0,0,0,2.765-3.186h7.154a1.121,1.121,0,0,0,0-2.243Z" transform="translate(-1.392 -12.422)" fill="#691cc7"/>
    </g>
  </g>
</svg>
