<svg xmlns="http://www.w3.org/2000/svg" width="41.615" height="46.242" viewBox="0 0 41.615 46.242">
  <g id="noun_Wallet_2401402" transform="translate(-3.823 -1.996)">
    <g id="Outline_Icon" data-name="Outline Icon" transform="translate(3.823 1.996)">
      <path id="Caminho_158" data-name="Caminho 158" d="M43.533,28.972V23.688a4.753,4.753,0,0,0-.771-2.6l2.563-3.154a2.334,2.334,0,0,0-.274-3.21L36.329,7.167a2.186,2.186,0,0,0-2.988.094l.139-.766a2.152,2.152,0,0,0-.359-1.628,2.223,2.223,0,0,0-1.456-.92L20.482,2.031A2.235,2.235,0,0,0,17.894,3.81l-.372,2.054a2.256,2.256,0,0,0-1.147.308L6.143,12.21a2.355,2.355,0,0,0-.835,3.175L7.6,19.449A4.742,4.742,0,0,0,5,23.688V43.5a4.7,4.7,0,0,0,4.665,4.734h29.2A4.7,4.7,0,0,0,43.533,43.5V38.22a3.083,3.083,0,0,0,3.083-3.083V32.055A3.083,3.083,0,0,0,43.533,28.972ZM34.35,8.423a.669.669,0,0,1,.97-.091l8.724,7.562a.78.78,0,0,1,.088,1.074l-2.419,2.977a4.663,4.663,0,0,0-.744-.478l.854-1.052a.771.771,0,0,0-.093-1.067,1.069,1.069,0,0,1-.193-1.459.771.771,0,0,0-.093-1.068l-4.575-3.965a.771.771,0,0,0-1.1.1.848.848,0,0,1-.593.308A1.02,1.02,0,0,1,34.41,11a.771.771,0,0,0-1.1.1l-.854,1.051.326-1.795ZM31.883,15.3l2.2-2.7a2.508,2.508,0,0,0,1.233.2,2.4,2.4,0,0,0,1.052-.345l3.6,3.121a2.644,2.644,0,0,0,.263,2.365l-.848,1.043a4.585,4.585,0,0,0-.512-.029h-7.65ZM19.411,4.085a.688.688,0,0,1,.811-.534L31.4,5.467a.694.694,0,0,1,.457.284.617.617,0,0,1,.1.469L29.651,18.953H16.714Zm-7.46,14.868L10.464,16.32a2.67,2.67,0,0,0,.684-2.349L15.4,11.462a2.487,2.487,0,0,0,1.009.543l-1.261,6.948Zm-5.3-4.326a.806.806,0,0,1,.28-1.09L17.159,7.5c.022-.013.048-.012.07-.022l-.544,3a.925.925,0,0,1-.441-.385.771.771,0,0,0-1.063-.285L9.815,12.973a.771.771,0,0,0-.279,1.043,1.1,1.1,0,0,1-.452,1.454.771.771,0,0,0-.28,1.043l1.376,2.441H9.665a4.555,4.555,0,0,0-.555.037ZM41.991,43.5A3.16,3.16,0,0,1,38.868,46.7H9.665A3.16,3.16,0,0,1,6.541,43.5V23.688a3.16,3.16,0,0,1,3.123-3.193h29.2a3.16,3.16,0,0,1,3.123,3.193v5.284H35.826a4.624,4.624,0,1,0,0,9.248h6.165Zm3.083-8.367a1.541,1.541,0,0,1-1.541,1.541H35.826a3.083,3.083,0,0,1,0-6.165h7.707a1.541,1.541,0,0,1,1.541,1.541Z" transform="translate(-5 -1.996)" fill="#691cc7"/>
      <path id="Caminho_159" data-name="Caminho 159" d="M45.312,40a2.312,2.312,0,1,0,2.312,2.312A2.312,2.312,0,0,0,45.312,40Zm0,3.083a.771.771,0,1,1,.771-.771A.771.771,0,0,1,45.312,43.083Z" transform="translate(-13.715 -10.712)" fill="#691cc7"/>
      <path id="Caminho_160" data-name="Caminho 160" d="M13,54.493a.771.771,0,0,0,.771.771H39.665a2.784,2.784,0,0,0,2.62-2.918V50.2a.771.771,0,0,0-1.541,0v2.146a1.256,1.256,0,0,1-1.079,1.376H13.771A.771.771,0,0,0,13,54.493Z" transform="translate(-6.835 -12.875)" fill="#691cc7"/>
      <path id="Caminho_161" data-name="Caminho 161" d="M13.771,30.541H39.665a1.256,1.256,0,0,1,1.079,1.376v2.146a.771.771,0,1,0,1.541,0V31.918A2.784,2.784,0,0,0,39.665,29H13.771a.771.771,0,1,0,0,1.541Z" transform="translate(-6.835 -8.189)" fill="#691cc7"/>
      <path id="Caminho_162" data-name="Caminho 162" d="M52.771,40a.771.771,0,0,0-.771.771v3.083a.771.771,0,0,0,1.541,0V40.771A.771.771,0,0,0,52.771,40Z" transform="translate(-15.779 -10.712)" fill="#691cc7"/>
      <path id="Caminho_163" data-name="Caminho 163" d="M23.577,13.636a.771.771,0,0,0,.9-.617L25.3,8.44a2.525,2.525,0,0,0,1.9-1.227L31.811,8a2.345,2.345,0,0,0,.4.959,2.557,2.557,0,0,0,.956.818l-.787,4.334a.771.771,0,1,0,1.517.276L34.8,9.4a.771.771,0,0,0-.628-.9,1.079,1.079,0,0,1-.7-.427.771.771,0,0,1-.139-.588.771.771,0,0,0-.628-.9l-5.861-1a.771.771,0,0,0-.886.625.966.966,0,0,1-1.162.687.771.771,0,0,0-.889.622l-.947,5.223A.771.771,0,0,0,23.577,13.636Z" transform="translate(-9.115 -2.817)" fill="#691cc7"/>
    </g>
  </g>
</svg>
