<svg xmlns="http://www.w3.org/2000/svg" width="27.03" height="21.302" viewBox="0 0 27.03 21.302">
  <g id="dollar-coin" transform="translate(0 -54.039)">
    <path id="Caminho_21" data-name="Caminho 21" d="M13.518,54.439a10.646,10.646,0,1,0,0,20.5,10.645,10.645,0,1,0,0-20.5ZM1.59,64.69a9.064,9.064,0,0,1,9.2-9.053,10.637,10.637,0,0,0,0,18.105,9.064,9.064,0,0,1-9.2-9.053Zm14.8,9.054A9.054,9.054,0,1,1,25.44,64.69,9.064,9.064,0,0,1,16.386,73.744Z" fill="#31d57c"/>
    <path id="Caminho_22" data-name="Caminho 22" d="M239.79,136.443h-2.254a1.229,1.229,0,0,1,0-2.458h2.175a1.724,1.724,0,0,1,1.23.555.8.8,0,0,0,1.16-1.087,3.349,3.349,0,0,0-2.643-1.058v-.953a.8.8,0,1,0-1.59,0v.953a2.828,2.828,0,1,0-.332,5.638h2.254a1.229,1.229,0,0,1,0,2.458h-2.372a1.714,1.714,0,0,1-.958-.322.8.8,0,1,0-.906,1.306,3.533,3.533,0,0,0,2.313.606v.953a.8.8,0,0,0,1.59,0v-.953a2.828,2.828,0,1,0,.332-5.638Z" transform="translate(-222.277 -72.548)" fill="#31d57c"/>
  </g>
</svg>
