<svg xmlns="http://www.w3.org/2000/svg" width="11.793" height="19.5" viewBox="0 0 11.793 19.5">
  <path id="duotone-question" d="M14.137,22.794a.944.944,0,0,0-1.887,0Zm-1.887.013a.944.944,0,0,0,1.887,0Zm5.976-12.581h0ZM12.25,19.032a.944.944,0,0,0,1.887,0ZM7.406,8.733a.944.944,0,1,0,1.828.47ZM12.25,22.794v.013h1.887v-.013Zm5.032-12.568a2.947,2.947,0,0,1-.57,2.013,5.925,5.925,0,0,1-1.5,1.118,6.071,6.071,0,0,0-2.021,1.84,6.847,6.847,0,0,0-.938,3.836h1.887a5.011,5.011,0,0,1,.634-2.809,4.244,4.244,0,0,1,1.438-1.266,7.557,7.557,0,0,0,1.957-1.516,4.8,4.8,0,0,0,1-3.216ZM13.193,6.137a4.089,4.089,0,0,1,4.089,4.089h1.887A5.976,5.976,0,0,0,13.193,4.25ZM9.233,9.2a4.091,4.091,0,0,1,3.96-3.066V4.25A5.978,5.978,0,0,0,7.406,8.733Z" transform="translate(-7.376 -4.25)" fill="#777"/>
</svg>
