<svg id="iconfinder_Filter_4781833" xmlns="http://www.w3.org/2000/svg" width="20" height="20" viewBox="0 0 20 20">
  <g id="Layer_2" data-name="Layer 2" transform="translate(1.896 3.159)">
    <path id="Caminho_103" data-name="Caminho 103" d="M21.373,8.264H10.632a.632.632,0,1,1,0-1.264H21.373a.632.632,0,0,1,0,1.264Z" transform="translate(-5.577 -5.736)" fill="#691cc7"/>
    <path id="Caminho_104" data-name="Caminho 104" d="M5.527,8.264h-1.9A.632.632,0,1,1,3.632,7h1.9a.632.632,0,0,1,0,1.264Z" transform="translate(-3 -5.736)" fill="#691cc7"/>
    <path id="Caminho_105" data-name="Caminho 105" d="M14.373,16.264H3.632a.632.632,0,1,1,0-1.264H14.373a.632.632,0,0,1,0,1.264Z" transform="translate(-3 -8.682)" fill="#691cc7"/>
    <path id="Caminho_106" data-name="Caminho 106" d="M8.055,24.264H3.632a.632.632,0,1,1,0-1.264H8.055a.632.632,0,0,1,0,1.264Z" transform="translate(-3 -11.627)" fill="#691cc7"/>
    <path id="Caminho_107" data-name="Caminho 107" d="M7.9,8.791a1.9,1.9,0,1,1,1.9-1.9A1.9,1.9,0,0,1,7.9,8.791Zm0-2.527a.632.632,0,1,0,.632.632A.632.632,0,0,0,7.9,6.264Z" transform="translate(-4.104 -5)" fill="#691cc7"/>
    <path id="Caminho_108" data-name="Caminho 108" d="M21.9,16.791a1.9,1.9,0,1,1,1.9-1.9A1.9,1.9,0,0,1,21.9,16.791Zm0-2.527a.632.632,0,1,0,.632.632A.632.632,0,0,0,21.9,14.264Z" transform="translate(-9.259 -7.945)" fill="#691cc7"/>
    <path id="Caminho_109" data-name="Caminho 109" d="M11.9,24.791a1.9,1.9,0,1,1,1.9-1.9A1.9,1.9,0,0,1,11.9,24.791Zm0-2.527a.632.632,0,1,0,.632.632A.632.632,0,0,0,11.9,22.264Z" transform="translate(-5.577 -10.891)" fill="#691cc7"/>
    <path id="Caminho_110" data-name="Caminho 110" d="M26.527,16.264h-1.9a.632.632,0,1,1,0-1.264h1.9a.632.632,0,1,1,0,1.264Z" transform="translate(-10.731 -8.682)" fill="#691cc7"/>
    <path id="Caminho_111" data-name="Caminho 111" d="M22.846,24.264H14.632a.632.632,0,1,1,0-1.264h8.214a.632.632,0,1,1,0,1.264Z" transform="translate(-7.05 -11.627)" fill="#691cc7"/>
  </g>
  <g id="frame">
    <rect id="Retângulo_145" data-name="Retângulo 145" width="20" height="20" fill="none"/>
  </g>
</svg>
