<svg xmlns="http://www.w3.org/2000/svg" width="22.504" height="22.504" viewBox="0 0 22.504 22.504">
  <g id="history" transform="translate(150 226)">
    <path id="Caminho_99" data-name="Caminho 99" d="M12.131,6.066v4.822l3.2,3.2a.879.879,0,0,1-1.243,1.243L10.63,11.874a.879.879,0,0,1-.257-.622V6.066a.879.879,0,1,1,1.758,0ZM14.71,0H7.794A7.767,7.767,0,0,0,2.683,1.911V.879a.879.879,0,0,0-1.758,0V4.337a.881.881,0,0,0,.879.879H5.262a.879.879,0,0,0,0-1.758H3.6a6.057,6.057,0,0,1,4.2-1.7H14.71a6.043,6.043,0,0,1,6.036,6.036V14.71a6.043,6.043,0,0,1-6.036,6.036H7.794A6.043,6.043,0,0,1,1.758,14.71V11.252a.879.879,0,0,0-1.758,0V14.71A7.8,7.8,0,0,0,7.794,22.5H14.71A7.8,7.8,0,0,0,22.5,14.71V7.794A7.8,7.8,0,0,0,14.71,0Z" transform="translate(-150 -226)" fill="#691cc7"/>
  </g>
</svg>
