<svg xmlns="http://www.w3.org/2000/svg" width="21.527" height="31.232" viewBox="0 0 21.527 31.232">
  <g id="noun_invoice_840190" transform="translate(27.847 41.007)">
    <g id="Grupo_230" data-name="Grupo 230" transform="translate(-27.847 -41.007)">
      <path id="Caminho_181" data-name="Caminho 181" d="M19.638,957.356a.724.724,0,0,0-.651.813v29.7a.729.729,0,0,0,.384.648.709.709,0,0,0,.722-.062l3.361-2.44,2.7,2.4a.719.719,0,0,0,.932,0l2.656-2.364L32.4,988.41a.719.719,0,0,0,.932,0l2.7-2.4,3.361,2.44a.694.694,0,0,0,1.106-.607q0-14.839,0-29.7a.694.694,0,0,0-1.106-.651l-3.361,2.44-2.7-2.4a.719.719,0,0,0-.932,0L29.743,959.9l-2.656-2.364a.719.719,0,0,0-.932,0l-2.7,2.4-3.361-2.44a.7.7,0,0,0-.455-.141Zm6.983,1.626,2.656,2.364a.719.719,0,0,0,.932,0l2.656-2.364,2.656,2.364a.716.716,0,0,0,.878.043l2.711-1.973v27.118L36.4,984.561a.716.716,0,0,0-.878.043l-2.656,2.364L30.209,984.6a.719.719,0,0,0-.932,0l-2.656,2.364L23.964,984.6a.707.707,0,0,0-.878-.043l-2.711,1.974V959.416l2.711,1.974a.716.716,0,0,0,.878-.043Z" transform="translate(-18.978 -957.355)" fill="#fff"/>
    </g>
  </g>
</svg>
