<svg xmlns="http://www.w3.org/2000/svg" width="7.892" height="13.181" viewBox="0 0 7.892 13.181">
  <path id="Caminho_55" data-name="Caminho 55" d="M239.79,136.443h-2.254a1.229,1.229,0,0,1,0-2.458h2.175a1.724,1.724,0,0,1,1.23.555.8.8,0,0,0,1.16-1.087,3.349,3.349,0,0,0-2.643-1.058v-.953a.8.8,0,1,0-1.59,0v.953a2.828,2.828,0,1,0-.332,5.638h2.254a1.229,1.229,0,0,1,0,2.458h-2.372a1.714,1.714,0,0,1-.958-.322.8.8,0,1,0-.906,1.306,3.533,3.533,0,0,0,2.313.606v.953a.8.8,0,0,0,1.59,0v-.953a2.828,2.828,0,1,0,.332-5.638Z" transform="translate(-234.717 -130.647)" fill="#31d57c"/>
</svg>
