<svg xmlns="http://www.w3.org/2000/svg" width="27.765" height="27.759" viewBox="0 0 27.765 27.759">
  <g id="whatsapp-svgrepo-com" transform="translate(0.256 0.25)">
    <path id="Caminho_199" data-name="Caminho 199" d="M13.856,0A13.4,13.4,0,0,0,2.224,20.058l-2.2,6.6a.454.454,0,0,0,.547.583l7.209-1.9A13.4,13.4,0,1,0,13.856,0Zm0,25.9a12.527,12.527,0,0,1-4.6-.884l2.2-.49a.454.454,0,0,0-.2-.887l-3.525.785-.009,0H7.717L1.151,26.152l2-6a.455.455,0,0,0-.04-.376A12.493,12.493,0,1,1,13.856,25.9Z" transform="translate(0)" fill="#691cc7" stroke="#691cc7" stroke-width="0.5"/>
    <path id="Caminho_200" data-name="Caminho 200" d="M29.066,22.953a9.4,9.4,0,0,0-2.979-2.6,1.693,1.693,0,0,0-1.278-.217,1.186,1.186,0,0,0-.705.54,11.478,11.478,0,0,1-.781.869,1.231,1.231,0,0,1-1.805-.181L17.9,17.743a1.228,1.228,0,0,1-.186-1.8,11.008,11.008,0,0,1,.873-.787,1.18,1.18,0,0,0,.54-.705,1.7,1.7,0,0,0-.219-1.283,9.388,9.388,0,0,0-2.6-2.974,1.683,1.683,0,0,0-1.989.3l-.8.8a4.5,4.5,0,0,0-1.4,4.387,9.131,9.131,0,0,0,2.645,4.182L19.4,24.493a9.142,9.142,0,0,0,4.183,2.645,4.441,4.441,0,0,0,4.387-1.4l.8-.8A1.682,1.682,0,0,0,29.066,22.953ZM28.124,24.3l-.8.8a3.6,3.6,0,0,1-3.54,1.155,8.285,8.285,0,0,1-3.745-2.4L15.409,19.22a8.282,8.282,0,0,1-2.4-3.745,3.6,3.6,0,0,1,1.155-3.54l.8-.8A.781.781,0,0,1,15.882,11a8.631,8.631,0,0,1,2.24,2.626.845.845,0,0,1,.13.586.282.282,0,0,1-.149.179l-.069.047a8.794,8.794,0,0,0-1.068.993,3.068,3.068,0,0,0-.291.546,4.2,4.2,0,0,1-.307-1.179.46.46,0,0,0-.5-.405.455.455,0,0,0-.405.5,6.165,6.165,0,0,0,2.053,3.768c.007.006.016.008.023.013L20.875,22c.013.013.026.022.039.034a.455.455,0,0,0,.037.055,6.726,6.726,0,0,0,3.736,1.7l.047,0a.454.454,0,0,0,.046-.906,5.3,5.3,0,0,1-1.394-.347,3.177,3.177,0,0,0,.445-.251,8.8,8.8,0,0,0,.993-1.068l.047-.068a.282.282,0,0,1,.179-.149.834.834,0,0,1,.581.127,8.624,8.624,0,0,1,2.631,2.243A.779.779,0,0,1,28.124,24.3Z" transform="translate(-6.547 -5.455)" fill="#691cc7" stroke="#691cc7" stroke-width="0.5"/>
  </g>
</svg>
