<svg xmlns="http://www.w3.org/2000/svg" width="36" height="21.006" viewBox="0 0 36 21.006">
  <g id="icon" transform="translate(0 -72.906)">
    <path id="Caminho_90" data-name="Caminho 90" d="M98.655,93.913H76.5a3.153,3.153,0,0,1-3.149-3.149V86.7a.6.6,0,0,1,1.2,0v4.064A1.951,1.951,0,0,0,76.5,92.713h22.16a1.952,1.952,0,0,0,1.949-1.949V76.056a1.952,1.952,0,0,0-1.949-1.949H76.5a1.951,1.951,0,0,0-1.949,1.949v4.015a.6.6,0,0,1-1.2,0V76.056A3.153,3.153,0,0,1,76.5,72.906h22.16a3.153,3.153,0,0,1,3.149,3.149V90.764A3.153,3.153,0,0,1,98.655,93.913Z" transform="translate(-65.804)" fill="#691cc7"/>
    <path id="Caminho_91" data-name="Caminho 91" d="M122.9,112.407l6.69-6.138a.6.6,0,1,0-.811-.884l-9.6,8.808-9.6-8.808a.6.6,0,0,0-.812.884l6.69,6.138-6.69,6.138a.6.6,0,0,0,.812.884l6.766-6.208,2.429,2.228a.6.6,0,0,0,.811,0l2.429-2.228,6.767,6.208a.6.6,0,1,0,.811-.884Z" transform="translate(-97.407 -28.998)" fill="#691cc7"/>
    <path id="Caminho_92" data-name="Caminho 92" d="M31.245,170.415H24.092a.6.6,0,1,1,0-1.2h7.154a.6.6,0,1,1,0,1.2Z" transform="translate(-21.076 -86.405)" fill="#691cc7"/>
    <path id="Caminho_93" data-name="Caminho 93" d="M5,129.632H.6a.6.6,0,1,1,0-1.2H5a.6.6,0,1,1,0,1.2Z" transform="translate(0 -49.816)" fill="#691cc7"/>
    <path id="Caminho_94" data-name="Caminho 94" d="M15.1,211.2H11.858a.6.6,0,0,1,0-1.2H15.1a.6.6,0,1,1,0,1.2Z" transform="translate(-10.1 -122.995)" fill="#691cc7"/>
  </g>
</svg>
