<svg xmlns="http://www.w3.org/2000/svg" width="23.025" height="23.025" viewBox="0 0 23.025 23.025">
  <g id="Solid" transform="translate(-24 -23.999)">
    <path id="Caminho_134" data-name="Caminho 134" d="M143.524,30.524l2.458-2.458v13a1.191,1.191,0,0,0,2.382,0v-13l2.458,2.458a1.191,1.191,0,1,0,1.684-1.684l-4.491-4.491a1.191,1.191,0,0,0-1.684,0l-4.491,4.491a1.191,1.191,0,1,0,1.684,1.684Z" transform="translate(-111.66)" fill="#fff"/>
    <path id="Caminho_135" data-name="Caminho 135" d="M45.834,232a1.191,1.191,0,0,0-1.191,1.191v9.131H26.382v-9.131a1.191,1.191,0,0,0-2.382,0v9.528a1.985,1.985,0,0,0,1.985,1.985H45.04a1.985,1.985,0,0,0,1.985-1.985v-9.528A1.191,1.191,0,0,0,45.834,232Z" transform="translate(0 -197.679)" fill="#fff"/>
  </g>
</svg>
