<svg id="download-gray" xmlns="http://www.w3.org/2000/svg" width="13.222" height="13.222" viewBox="0 0 13.222 13.222">
  <g id="Grupo_212" data-name="Grupo 212">
    <g id="Grupo_211" data-name="Grupo 211">
      <path id="Caminho_148" data-name="Caminho 148" d="M12.5.721A2.446,2.446,0,0,0,10.76,0h-8.3A2.465,2.465,0,0,0,0,2.462v8.3a2.465,2.465,0,0,0,2.462,2.462h8.3a2.465,2.465,0,0,0,2.462-2.462v-8.3A2.446,2.446,0,0,0,12.5.721ZM12.447,10.76a1.689,1.689,0,0,1-1.687,1.687h-8.3A1.689,1.689,0,0,1,.775,10.76v-8.3A1.689,1.689,0,0,1,2.462.775h8.3a1.687,1.687,0,0,1,1.687,1.687Z" fill="#777"/>
    </g>
  </g>
  <g id="Grupo_214" data-name="Grupo 214" transform="translate(4.17 2.489)">
    <g id="Grupo_213" data-name="Grupo 213">
      <path id="Caminho_149" data-name="Caminho 149" d="M166.24,99.527a.387.387,0,0,0-.548,0L164.3,100.92V96.787a.387.387,0,0,0-.775,0v4.132l-1.393-1.392a.387.387,0,1,0-.548.548l2.054,2.054a.387.387,0,0,0,.548,0l2.054-2.054A.387.387,0,0,0,166.24,99.527Z" transform="translate(-161.471 -96.4)" fill="#777"/>
    </g>
  </g>
  <g id="Grupo_216" data-name="Grupo 216" transform="translate(2.49 9.958)">
    <g id="Grupo_215" data-name="Grupo 215">
      <path id="Caminho_150" data-name="Caminho 150" d="M104.258,385.6H96.789a.387.387,0,0,0,0,.775h7.468a.387.387,0,0,0,0-.775Z" transform="translate(-96.402 -385.601)" fill="#777"/>
    </g>
  </g>
</svg>
