<svg id="download" xmlns="http://www.w3.org/2000/svg" width="20.604" height="20.604" viewBox="0 0 20.604 20.604">
  <g id="Grupo_212" data-name="Grupo 212">
    <g id="Grupo_211" data-name="Grupo 211">
      <path id="Caminho_148" data-name="Caminho 148" d="M19.481,1.124A3.812,3.812,0,0,0,16.768,0H3.837A3.841,3.841,0,0,0,0,3.837V16.768A3.841,3.841,0,0,0,3.837,20.6H16.768A3.841,3.841,0,0,0,20.6,16.768V3.837A3.811,3.811,0,0,0,19.481,1.124ZM19.4,16.768A2.632,2.632,0,0,1,16.768,19.4H3.837a2.632,2.632,0,0,1-2.629-2.629V3.836A2.632,2.632,0,0,1,3.837,1.207H16.768A2.629,2.629,0,0,1,19.4,3.837Z" fill="#691cc7"/>
    </g>
  </g>
  <g id="Grupo_214" data-name="Grupo 214" transform="translate(6.498 3.879)">
    <g id="Grupo_213" data-name="Grupo 213">
      <path id="Caminho_149" data-name="Caminho 149" d="M168.9,101.273a.6.6,0,0,0-.854,0l-2.17,2.17V97a.6.6,0,1,0-1.207,0v6.44l-2.17-2.17a.6.6,0,1,0-.854.854l3.2,3.2a.6.6,0,0,0,.854,0l3.2-3.2A.6.6,0,0,0,168.9,101.273Z" transform="translate(-161.471 -96.4)" fill="#691cc7"/>
    </g>
  </g>
  <g id="Grupo_216" data-name="Grupo 216" transform="translate(3.88 15.518)">
    <g id="Grupo_215" data-name="Grupo 215">
      <path id="Caminho_150" data-name="Caminho 150" d="M108.644,385.6H97.006a.6.6,0,0,0,0,1.207h11.638a.6.6,0,0,0,0-1.207Z" transform="translate(-96.402 -385.601)" fill="#691cc7"/>
    </g>
  </g>
</svg>
