<svg xmlns="http://www.w3.org/2000/svg" width="12.158" height="12.097" viewBox="0 0 12.158 12.097">
  <g id="edit-gray" transform="translate(0 -0.261)">
    <path id="Caminho_123" data-name="Caminho 123" d="M11.222,45.585a.3.3,0,0,0-.3.3v2.689a.909.909,0,0,1-.908.908h-8.5a.909.909,0,0,1-.908-.908V40.686a.909.909,0,0,1,.908-.908H4.2a.3.3,0,0,0,0-.606H1.514A1.516,1.516,0,0,0,0,40.686v7.891a1.516,1.516,0,0,0,1.514,1.514h8.5a1.516,1.516,0,0,0,1.514-1.514V45.888A.3.3,0,0,0,11.222,45.585Zm0,0" transform="translate(0 -37.733)" fill="#585858"/>
    <path id="Caminho_124" data-name="Caminho 124" d="M116.318.66a1.363,1.363,0,0,0-1.927,0l-5.4,5.4a.3.3,0,0,0-.078.133L108.2,8.76a.3.3,0,0,0,.373.373l2.565-.711a.3.3,0,0,0,.133-.078l5.4-5.4a1.364,1.364,0,0,0,0-1.927Zm-6.669,5.6,4.421-4.421L115.5,3.263l-4.421,4.421Zm-.285.572L110.5,7.97l-1.576.437Zm6.881-4.316-.321.321L114.5,1.409l.321-.321a.757.757,0,0,1,1.07,0l.355.355A.758.758,0,0,1,116.245,2.514Zm0,0" transform="translate(-104.914 0)" fill="#585858"/>
  </g>
</svg>
