<svg xmlns="http://www.w3.org/2000/svg" width="18.558" height="12.826" viewBox="0 0 18.558 12.826">
  <g id="eye-icon" transform="translate(-10.493 -129.25)">
    <g id="Grupo_197" data-name="Grupo 197" transform="translate(11.025 129.75)">
      <path id="Caminho_136" data-name="Caminho 136" d="M11.845,135.664l.935,1.227c3.856,5.059,10.129,5.059,13.985,0l.932-1.227-.935-1.227c-3.856-5.059-10.129-5.059-13.985,0Zm7.926,5.912a9.45,9.45,0,0,1-7.473-4.057l-1.175-1.541a.554.554,0,0,1,0-.632L12.3,133.8c4.12-5.406,10.825-5.406,14.945,0l1.175,1.541a.554.554,0,0,1,0,.632l-1.175,1.541a9.45,9.45,0,0,1-7.473,4.057Z" transform="translate(-11.025 -129.75)" fill="#9a9a9a" stroke="#9a9a9a" stroke-width="1"/>
      <path id="Caminho_137" data-name="Caminho 137" d="M167.278,165.077a2.2,2.2,0,1,0,2.2,2.2A2.2,2.2,0,0,0,167.278,165.077Zm0,4.978a2.778,2.778,0,1,1,2.778-2.778A2.781,2.781,0,0,1,167.278,170.055Z" transform="translate(-158.323 -161.155)" fill="#9a9a9a" stroke="#9a9a9a" stroke-width="1"/>
    </g>
  </g>
</svg>
