<svg xmlns="http://www.w3.org/2000/svg" width="16.409" height="11.222" viewBox="0 0 16.409 11.222">
  <g id="eye-gray" transform="translate(-10.751 -129.5)">
    <g id="Grupo_197" data-name="Grupo 197" transform="translate(11.025 129.75)">
      <path id="Caminho_136" data-name="Caminho 136" d="M11.769,135.112l.848,1.113c3.5,4.587,9.184,4.587,12.68,0l.845-1.113L25.294,134c-3.5-4.587-9.184-4.587-12.68,0Zm7.186,5.36a8.569,8.569,0,0,1-6.775-3.678l-1.065-1.4a.5.5,0,0,1,0-.573l1.065-1.4c3.736-4.9,9.815-4.9,13.551,0l1.065,1.4a.5.5,0,0,1,0,.573l-1.065,1.4a8.569,8.569,0,0,1-6.775,3.678Z" transform="translate(-11.025 -129.75)" fill="#777" stroke="#777" stroke-width="0.5"/>
      <path id="Caminho_137" data-name="Caminho 137" d="M167.018,165.023a2,2,0,1,0,2,2A2,2,0,0,0,167.018,165.023Zm0,4.514a2.518,2.518,0,1,1,2.518-2.518A2.521,2.521,0,0,1,167.018,169.537Z" transform="translate(-158.899 -161.468)" fill="#777" stroke="#777" stroke-width="0.5"/>
    </g>
  </g>
</svg>
