<svg xmlns="http://www.w3.org/2000/svg" width="14.406" height="14.334" viewBox="0 0 14.406 14.334">
  <g id="icon-editar" transform="translate(0 -0.261)">
    <path id="Caminho_123" data-name="Caminho 123" d="M13.3,46.771a.359.359,0,0,0-.359.359v3.186a1.077,1.077,0,0,1-1.076,1.076H1.794A1.077,1.077,0,0,1,.718,50.316v-9.35a1.078,1.078,0,0,1,1.076-1.076H4.98a.359.359,0,0,0,0-.718H1.794A1.8,1.8,0,0,0,0,40.966v9.35A1.8,1.8,0,0,0,1.794,52.11H11.861a1.8,1.8,0,0,0,1.794-1.794V47.13A.359.359,0,0,0,13.3,46.771Zm0,0" transform="translate(0 -37.515)" fill="#585858"/>
    <path id="Caminho_124" data-name="Caminho 124" d="M117.821.734a1.615,1.615,0,0,0-2.283,0l-6.4,6.4a.359.359,0,0,0-.092.158l-.842,3.039a.359.359,0,0,0,.441.442l3.039-.842a.359.359,0,0,0,.158-.092l6.4-6.4a1.616,1.616,0,0,0,0-2.283Zm-7.9,6.634,5.239-5.239,1.69,1.69-5.239,5.239Zm-.337.677,1.35,1.35-1.867.517Zm8.154-5.114-.381.381-1.69-1.69.381-.381a.9.9,0,0,1,1.268,0l.421.421A.9.9,0,0,1,117.735,2.931Zm0,0" transform="translate(-104.308 0)" fill="#585858"/>
  </g>
</svg>
