<svg xmlns="http://www.w3.org/2000/svg" width="17.5" height="19.5" viewBox="0 0 17.5 19.5">
  <g id="icon-sino-orange" transform="translate(-329 -36)">
    <path id="outline-bell" d="M4,17l-.671-.335A.75.75,0,0,0,4,17.75Zm16,0v.75a.75.75,0,0,0,.671-1.085ZM6.75,9A5.25,5.25,0,0,1,12,3.75V2.25A6.75,6.75,0,0,0,5.25,9ZM12,3.75A5.25,5.25,0,0,1,17.25,9h1.5A6.75,6.75,0,0,0,12,2.25ZM5.25,9a17.233,17.233,0,0,1-.962,5.263c-.242.727-.484,1.332-.665,1.754-.09.211-.165.375-.217.486l-.059.124-.015.03,0,.006h0L4,17l.671.335h0l0,0,.005-.011.019-.039c.016-.033.039-.081.068-.143.058-.124.139-.3.236-.53.194-.453.452-1.1.71-1.871A18.717,18.717,0,0,0,6.75,9ZM4,17.75H20v-1.5H4ZM20,17l.671-.335h0l0-.006-.014-.03-.059-.124c-.052-.111-.127-.275-.217-.486-.181-.422-.423-1.027-.665-1.754A17.234,17.234,0,0,1,18.75,9h-1.5a18.716,18.716,0,0,0,1.038,5.737c.258.773.516,1.418.71,1.871.1.227.179.406.236.53l.068.143.019.039.005.011,0,0h0Zm-5.75,1A2.25,2.25,0,0,1,12,20.25v1.5A3.75,3.75,0,0,0,15.75,18ZM12,20.25A2.25,2.25,0,0,1,9.75,18H8.25A3.75,3.75,0,0,0,12,21.75ZM9.75,18V17H8.25v1Zm6,0V17h-1.5v1Z" transform="translate(325.75 33.75)" fill="#f9a179"/>
  </g>
</svg>
