<svg xmlns="http://www.w3.org/2000/svg" width="15" height="15" viewBox="0 0 15 15">
  <g id="important-value-icon" transform="translate(-122 -288)">
    <circle id="Elipse_29" data-name="Elipse 29" cx="7.5" cy="7.5" r="7.5" transform="translate(122 288)" fill="#f4cdbb"/>
    <path id="duotone-question" d="M10.643,13.21a.456.456,0,0,0-.912,0Zm-.912.006a.456.456,0,0,0,.912,0Zm2.887-6.079h0ZM9.731,11.393a.456.456,0,0,0,.912,0ZM7.39,6.416a.456.456,0,1,0,.883.227ZM9.731,13.21v.006h.912V13.21Zm2.432-6.073a1.424,1.424,0,0,1-.275.973,2.863,2.863,0,0,1-.726.54,2.933,2.933,0,0,0-.977.889,3.308,3.308,0,0,0-.453,1.853h.912a2.421,2.421,0,0,1,.306-1.357,2.051,2.051,0,0,1,.695-.612,3.651,3.651,0,0,0,.945-.732,2.32,2.32,0,0,0,.485-1.554ZM10.187,5.162a1.976,1.976,0,0,1,1.976,1.976h.912A2.887,2.887,0,0,0,10.187,4.25ZM8.273,6.643a1.977,1.977,0,0,1,1.913-1.481V4.25a2.888,2.888,0,0,0-2.8,2.166Z" transform="translate(119.625 286.75)" fill="#fff"/>
  </g>
</svg>
