<svg xmlns="http://www.w3.org/2000/svg" width="12.149" height="14.959" viewBox="0 0 12.149 14.959">
  <g id="delete" transform="translate(0.003 0.001)">
    <path id="Caminho_138" data-name="Caminho 138" d="M222.749,154.7a.35.35,0,0,0-.35.35v6.621a.35.35,0,1,0,.7,0v-6.621A.35.35,0,0,0,222.749,154.7Zm0,0" transform="translate(-214.61 -149.285)" fill="#454545"/>
    <path id="Caminho_139" data-name="Caminho 139" d="M104.749,154.7a.35.35,0,0,0-.35.35v6.621a.35.35,0,0,0,.7,0v-6.621A.35.35,0,0,0,104.749,154.7Zm0,0" transform="translate(-100.744 -149.285)" fill="#454545"/>
    <path id="Caminho_140" data-name="Caminho 140" d="M.992,4.452v8.631a1.933,1.933,0,0,0,.514,1.333,1.725,1.725,0,0,0,1.252.541H9.386a1.725,1.725,0,0,0,1.252-.541,1.933,1.933,0,0,0,.514-1.333V4.452a1.338,1.338,0,0,0-.343-2.632H9.014V1.383A1.376,1.376,0,0,0,7.627,0H4.516A1.376,1.376,0,0,0,3.129,1.383V1.82H1.335A1.338,1.338,0,0,0,.992,4.452Zm8.394,9.8H2.757a1.109,1.109,0,0,1-1.065-1.174v-8.6H10.45v8.6A1.109,1.109,0,0,1,9.386,14.257ZM3.829,1.383A.675.675,0,0,1,4.516.7H7.627a.675.675,0,0,1,.687.683V1.82H3.829ZM1.335,2.521h9.473a.631.631,0,1,1,0,1.261H1.335a.631.631,0,0,1,0-1.261Zm0,0" transform="translate(0 0)" fill="#454545"/>
    <path id="Caminho_141" data-name="Caminho 141" d="M163.749,154.7a.35.35,0,0,0-.35.35v6.621a.35.35,0,0,0,.7,0v-6.621A.35.35,0,0,0,163.749,154.7Zm0,0" transform="translate(-157.677 -149.285)" fill="#454545"/>
  </g>
</svg>
