<svg xmlns="http://www.w3.org/2000/svg" width="16.5" height="15.621" viewBox="0 0 16.5 15.621">
  <path id="duotone-eye-closed" d="M7.823,4.721A6.464,6.464,0,0,1,9.5,4.5c4.773,0,7.5,5.25,7.5,5.25A12.369,12.369,0,0,1,15.209,12.2M3.762,7.334A12.351,12.351,0,0,0,2,9.75S4.727,15,9.5,15a6.466,6.466,0,0,0,1.706-.229m-2.081-2.8A2.253,2.253,0,0,1,7.378,10.5m2.5-2.969a2.252,2.252,0,0,1,1.844,1.844M2.75,3l13.5,13.5" transform="translate(-1.25 -1.939)" fill="none" stroke="#9a9a9a" stroke-linecap="round" stroke-linejoin="round" stroke-width="1.5"/>
</svg>
