<svg xmlns="http://www.w3.org/2000/svg" width="30.947" height="29.233" viewBox="0 0 30.947 29.233">
  <g id="noun_product_356037" transform="translate(-181.78 175.758)">
    <g id="Grupo_98" data-name="Grupo 98" transform="translate(182.08 -175.457)">
      <path id="Caminho_60" data-name="Caminho 60" d="M54.418,30.671a.6.6,0,0,0-.049-.173c0-.006,0-.013-.008-.019a.562.562,0,0,0-.121-.155.455.455,0,0,0-.035-.03c-.013-.011-.024-.024-.039-.034a.576.576,0,0,0-.138-.066l0,0L39.848,25.572a.591.591,0,0,0-.339-.008l-15,4.164c-.007,0-.012.008-.018.009a.551.551,0,0,0-.161.077.11.11,0,0,0-.015.013.32.32,0,0,0-.03.026.564.564,0,0,0-.115.135.174.174,0,0,0-.016.022.6.6,0,0,0-.061.184c0,.015,0,.03,0,.044a.4.4,0,0,0-.007.052V46.5a.585.585,0,0,0,.352.537l16.333,7.094a.582.582,0,0,0,.515-.025l12.844-7.094a.586.586,0,0,0,.3-.512V30.748c0-.011,0-.02,0-.032S54.42,30.686,54.418,30.671ZM39.652,26.74l12.513,4.077-11.184,4.7L26.6,30.364Zm-14.4,4.385,15.162,5.431V52.7L25.251,46.113ZM53.256,46.151,41.583,52.6V36.533l11.672-4.9V46.151Z" transform="translate(-24.08 -25.543)" fill="#fff" stroke="#fff" stroke-width="0.6"/>
      <path id="Caminho_61" data-name="Caminho 61" d="M37.283,47.928c-1.122-.293-1.159-.728-1.19-1.078a.825.825,0,0,1,.228-.634,1.124,1.124,0,0,1,.817-.357A1.045,1.045,0,0,1,38.181,46.9a.585.585,0,1,0,1.171,0,2.211,2.211,0,0,0-1.629-2.126v-.512a.585.585,0,0,0-1.171,0v.509a2.265,2.265,0,0,0-1.094.652,1.979,1.979,0,0,0-.53,1.527c.06.69.34,1.658,2.061,2.109,1.12.293,1.159.728,1.189,1.078a.822.822,0,0,1-.228.633,1.124,1.124,0,0,1-.817.357,1.044,1.044,0,0,1-1.043-1.043.585.585,0,0,0-1.171,0,2.212,2.212,0,0,0,1.633,2.127v.512a.585.585,0,0,0,1.171,0v-.513a2.266,2.266,0,0,0,1.091-.65,1.98,1.98,0,0,0,.529-1.526C39.277,49.289,38.984,48.374,37.283,47.928Z" transform="translate(-28.574 -33.062)" fill="#fff" stroke="#fff" stroke-width="0.6"/>
    </g>
  </g>
</svg>
