<svg xmlns="http://www.w3.org/2000/svg" width="27.057" height="26.884" viewBox="0 0 27.057 26.884">
  <g id="noun_team_57049" transform="translate(-52.37 62.255)">
    <g id="Grupo_58" data-name="Grupo 58" transform="translate(52.37 -62.255)">
      <g id="Grupo_52" data-name="Grupo 52" transform="translate(11.388 11.04)">
        <path id="Caminho_33" data-name="Caminho 33" d="M56.074,58.589H48.335a3.97,3.97,0,0,1-3.965-3.965V46.71a3.969,3.969,0,0,1,3.965-3.965h7.739a3.969,3.969,0,0,1,3.965,3.965v7.913A3.97,3.97,0,0,1,56.074,58.589Zm-7.739-14.07a2.193,2.193,0,0,0-2.191,2.191v7.913a2.193,2.193,0,0,0,2.191,2.191h7.739a2.193,2.193,0,0,0,2.191-2.191V46.71a2.193,2.193,0,0,0-2.191-2.191Z" transform="translate(-44.37 -42.745)" fill="#fff"/>
      </g>
      <g id="Grupo_53" data-name="Grupo 53" transform="translate(5.694 5.52)">
        <path id="Caminho_34" data-name="Caminho 34" d="M42.335,52.589a3.97,3.97,0,0,1-3.965-3.965V40.71a3.969,3.969,0,0,1,3.965-3.965h7.739a3.969,3.969,0,0,1,3.965,3.965.887.887,0,1,1-1.774,0,2.193,2.193,0,0,0-2.191-2.191H42.335a2.193,2.193,0,0,0-2.191,2.191v7.913a2.193,2.193,0,0,0,2.191,2.191.887.887,0,1,1,0,1.774Z" transform="translate(-38.37 -36.745)" fill="#fff"/>
      </g>
      <g id="Grupo_54" data-name="Grupo 54" transform="translate(0)">
        <path id="Caminho_35" data-name="Caminho 35" d="M36.335,46.589a3.97,3.97,0,0,1-3.965-3.965V34.71a3.969,3.969,0,0,1,3.965-3.965h7.739a3.969,3.969,0,0,1,3.965,3.965.887.887,0,1,1-1.774,0,2.193,2.193,0,0,0-2.191-2.191H36.335a2.193,2.193,0,0,0-2.191,2.191v7.913a2.193,2.193,0,0,0,2.191,2.191.887.887,0,1,1,0,1.774Z" transform="translate(-32.37 -30.745)" fill="#fff"/>
      </g>
      <g id="Grupo_57" data-name="Grupo 57" transform="translate(13.183 14.028)">
        <g id="Grupo_55" data-name="Grupo 55" transform="translate(4.985)">
          <path id="Caminho_36" data-name="Caminho 36" d="M61.869,60.029h-.012a.887.887,0,0,1-.875-.893,2.521,2.521,0,0,0-.773-1.772,4.965,4.965,0,0,0-.889-.562,3.61,3.61,0,0,1-1.219-.917c-.935-1.118-.478-2.305.092-3.32.093-.166.886-1.645.037-2.532a2.153,2.153,0,0,0-1.448-.459.887.887,0,0,1-.121-1.77,3.845,3.845,0,0,1,2.851,1,3.909,3.909,0,0,1,.227,4.628c-.553.984-.407,1.159-.279,1.313a1.971,1.971,0,0,0,.687.485,6.694,6.694,0,0,1,1.173.75,4.306,4.306,0,0,1,1.434,3.17A.886.886,0,0,1,61.869,60.029Z" transform="translate(-55.834 -47.798)" fill="#fff"/>
        </g>
        <g id="Grupo_56" data-name="Grupo 56" transform="translate(0 0.001)">
          <path id="Caminho_37" data-name="Caminho 37" d="M48.291,60.026a.884.884,0,0,1-.886-.861,4.18,4.18,0,0,1,1.45-3.193,7.575,7.575,0,0,1,1.139-.73,2.507,2.507,0,0,0,.747-.54c.17-.176.248-.257-.32-1.267a3.911,3.911,0,0,1,.227-4.628,3.835,3.835,0,0,1,2.851-1,.887.887,0,0,1-.121,1.77,2.118,2.118,0,0,0-1.448.459c-.849.887-.056,2.367.037,2.533.483.86,1.214,2.159.051,3.366a4.216,4.216,0,0,1-1.18.869,5.924,5.924,0,0,0-.9.576,2.4,2.4,0,0,0-.758,1.749.89.89,0,0,1-.871.9Z" transform="translate(-47.404 -47.799)" fill="#fff"/>
        </g>
      </g>
    </g>
  </g>
</svg>
